<svg id="collabs" xmlns="http://www.w3.org/2000/svg" width="22" height="22" viewBox="0 0 22 22">
  <path id="Path_1" data-name="Path 1" d="M245.47,2.8a.434.434,0,0,0,.434-.433V.433a.434.434,0,0,0-.869,0v1.93A.434.434,0,0,0,245.47,2.8Z" transform="translate(-234.509 0)" fill="#c9c9c9"/>
  <path id="Path_2" data-name="Path 2" d="M22.47,93.49l-.767-.762a1.458,1.458,0,0,0-1.721-.245l-1.446-1.439.07-.07a1.5,1.5,0,0,0-.756-2.528,1.506,1.506,0,0,0,.06-.421,1.5,1.5,0,0,0-1.2-1.468,1.506,1.506,0,0,0,.06-.421,1.484,1.484,0,0,0-.441-1.061,1.5,1.5,0,0,0-.755-.406,1.5,1.5,0,0,0-1.606-1.911l-2.865-.54a1.552,1.552,0,0,0-1.327.176.783.783,0,0,0-.066.068,1.514,1.514,0,0,0-1.584.347,1.486,1.486,0,0,0-.44,1.061,1.508,1.508,0,0,0,.06.421,1.5,1.5,0,0,0-1.136,1.888,1.5,1.5,0,0,0-.933,2.316A1.5,1.5,0,0,0,5.1,90.975l.07.07L3.728,92.483a1.456,1.456,0,0,0-1.643.284l-.768.763a1.442,1.442,0,0,0,0,2.041l.958.953a.433.433,0,1,0,.614-.612l-.958-.953a.579.579,0,0,1,0-.816l.768-.763a.583.583,0,0,1,.708-.087.43.43,0,0,0,.179.153l4.4,4.38a.427.427,0,0,0,.209.211.578.578,0,0,1-.024.79l-.767.763a.585.585,0,0,1-.821,0l-.958-.955a.433.433,0,0,0-.614.612l.959.955a1.458,1.458,0,0,0,2.048,0l.767-.764a1.443,1.443,0,0,0,.2-1.787l1.627-1.619.005-.005c.186-.192.705-.156,1.207-.121a6.268,6.268,0,0,0,1.142.008l1.782,1.774A1.442,1.442,0,0,0,15,99.4l.767.764a1.456,1.456,0,0,0,2.048,0l4.654-4.632a1.442,1.442,0,0,0,0-2.042ZM10.946,83.068l1.884.355L11.7,84.546a2.737,2.737,0,0,1-.676-.489,1.99,1.99,0,0,1-.639-.984h0a.377.377,0,0,1,0-.043,1.476,1.476,0,0,1,.561.038Zm-2.2.353a.642.642,0,0,1,.81-.077,3.1,3.1,0,0,0,.871,1.338,3.217,3.217,0,0,0,1.251.772.637.637,0,0,1-.974.811h0L8.745,84.318a.636.636,0,0,1,0-.9ZM7.61,85.309a.642.642,0,0,1,.9,0l1.577,1.568a.637.637,0,0,1-.9.9h0l-1.2-1.192-.006-.005-.374-.373a.633.633,0,0,1,0-.9ZM6.473,87.2a.644.644,0,0,1,.9,0l1.2,1.2a.634.634,0,0,1,0,.9.644.644,0,0,1-.9,0l-.435-.433h0L6.473,88.1a.635.635,0,0,1,0-.9Zm-.756,2.268a.643.643,0,0,1,.9,0l.436.434a.634.634,0,0,1,0,.9.642.642,0,0,1-.9,0L6.1,90.741l0,0,0,0-.376-.374a.634.634,0,0,1,0-.9Zm8.85,4.918a.435.435,0,0,0-.614,0l-.386.385c-.367.366-1.032.32-1.676.275a2.3,2.3,0,0,0-1.888.38L8.4,97.015l-4-3.98,1.416-1.408a1.515,1.515,0,0,0,1.851-.219,1.485,1.485,0,0,0,.441-1.061s0-.007,0-.011h.011a1.5,1.5,0,0,0,1.505-1.5s0-.007,0-.011h.011a1.5,1.5,0,0,0,1.505-1.51h.012a1.5,1.5,0,0,0,1.285-2.282L13.681,83.8a.638.638,0,0,1,.326-.173l.038-.006a.634.634,0,0,1,.541,1.076l-.378.375,0,0-.435.433a.433.433,0,1,0,.614.612l.379-.378h0l.057-.057a.641.641,0,0,1,.9,0,.633.633,0,0,1,0,.9l-.38.379h0L14.9,87.4a.433.433,0,1,0,.613.613l.437-.434a.642.642,0,0,1,.9,0,.634.634,0,0,1,0,.9l-.758.755a.433.433,0,0,0,.614.612l.371-.37.007-.006a.636.636,0,0,1,.9.9l-.378.376h0l-.6.6a.434.434,0,0,0,.614.612l.293-.292,1.4,1.4-4,3.981-1.433-1.426a1.707,1.707,0,0,0,.285-.229L14.566,95A.432.432,0,0,0,14.566,94.383Zm7.291.536L17.2,99.552a.585.585,0,0,1-.821,0l-.767-.764a.577.577,0,0,1,0-.815l4.654-4.632a.585.585,0,0,1,.821,0l.767.762a.579.579,0,0,1,0,.817Z" transform="translate(-0.894 -78.623)" fill="#c9c9c9"/>
  <path id="Path_3" data-name="Path 3" d="M83.433,5.058a.433.433,0,1,0,.613-.613L82.464,2.871a.433.433,0,0,0-.614.613Z" transform="translate(-78.238 -2.627)" fill="#c9c9c9"/>
  <path id="Path_4" data-name="Path 4" d="M372.085,5.184a.433.433,0,0,0,.307-.127l1.582-1.574a.434.434,0,0,0-.614-.612l-1.581,1.574a.433.433,0,0,0,.307.739Z" transform="translate(-355.664 -2.627)" fill="#c9c9c9"/>
  <path id="Path_5" data-name="Path 5" d="M60.054,430.323a.432.432,0,0,0,.005.612h0a.433.433,0,1,0-.007-.613Z" transform="translate(-57.384 -411.708)" fill="#c9c9c9"/>
  <path id="Path_6" data-name="Path 6" d="M332.945,332.984a.433.433,0,1,0-.2-.819h0a.432.432,0,0,0,.2.818Z" transform="translate(-318.21 -317.847)" fill="#c9c9c9"/>
</svg>
