<svg id="dashboard" xmlns="http://www.w3.org/2000/svg" width="22" height="22" viewBox="0 0 22 22">
  <g id="Group_21" data-name="Group 21">
    <path id="Path_7" data-name="Path 7" d="M8.708,7.333H1.375A1.377,1.377,0,0,1,0,5.958V1.375A1.377,1.377,0,0,1,1.375,0H8.708a1.377,1.377,0,0,1,1.375,1.375V5.958A1.377,1.377,0,0,1,8.708,7.333ZM1.375.917a.459.459,0,0,0-.458.458V5.958a.459.459,0,0,0,.458.458H8.708a.459.459,0,0,0,.458-.458V1.375A.459.459,0,0,0,8.708.917Z" fill="#c9c9c9"/>
  </g>
  <g id="Group_22" data-name="Group 22" transform="translate(0 9.167)">
    <path id="Path_8" data-name="Path 8" d="M8.708,22.833H1.375A1.377,1.377,0,0,1,0,21.458V11.375A1.377,1.377,0,0,1,1.375,10H8.708a1.377,1.377,0,0,1,1.375,1.375V21.458A1.377,1.377,0,0,1,8.708,22.833ZM1.375,10.917a.459.459,0,0,0-.458.458V21.458a.459.459,0,0,0,.458.458H8.708a.459.459,0,0,0,.458-.458V11.375a.459.459,0,0,0-.458-.458Z" transform="translate(0 -10)" fill="#c9c9c9"/>
  </g>
  <g id="Group_23" data-name="Group 23" transform="translate(11.917 14.667)">
    <path id="Path_9" data-name="Path 9" d="M21.708,23.333H14.375A1.377,1.377,0,0,1,13,21.958V17.375A1.377,1.377,0,0,1,14.375,16h7.333a1.377,1.377,0,0,1,1.375,1.375v4.583A1.377,1.377,0,0,1,21.708,23.333Zm-7.333-6.417a.459.459,0,0,0-.458.458v4.583a.459.459,0,0,0,.458.458h7.333a.459.459,0,0,0,.458-.458V17.375a.459.459,0,0,0-.458-.458Z" transform="translate(-13 -16)" fill="#c9c9c9"/>
  </g>
  <g id="Group_24" data-name="Group 24" transform="translate(11.917)">
    <path id="Path_10" data-name="Path 10" d="M21.708,12.833H14.375A1.377,1.377,0,0,1,13,11.458V1.375A1.377,1.377,0,0,1,14.375,0h7.333a1.377,1.377,0,0,1,1.375,1.375V11.458A1.377,1.377,0,0,1,21.708,12.833ZM14.375.917a.459.459,0,0,0-.458.458V11.458a.459.459,0,0,0,.458.458h7.333a.459.459,0,0,0,.458-.458V1.375a.459.459,0,0,0-.458-.458Z" transform="translate(-13)" fill="#c9c9c9"/>
  </g>
</svg>
