<svg xmlns="http://www.w3.org/2000/svg" xmlns:xlink="http://www.w3.org/1999/xlink" width="40" height="20" viewBox="0 0 40 20">
  <defs>
    <clipPath id="clip-path">
      <rect id="Rectangle_89" data-name="Rectangle 89" width="40" height="20" transform="translate(173 551)" fill="#43435e"/>
    </clipPath>
    <filter id="Ellipse_36" x="-6" y="-6" width="52" height="52" filterUnits="userSpaceOnUse">
      <feOffset input="SourceAlpha"/>
      <feGaussianBlur stdDeviation="2" result="blur"/>
      <feFlood flood-opacity="0.2"/>
      <feComposite operator="in" in2="blur"/>
      <feComposite in="SourceGraphic"/>
    </filter>
  </defs>
  <g id="nav-dropdown" transform="translate(-173 -555)">
    <g id="Mask_Group_27" data-name="Mask Group 27" transform="translate(0 4)" clip-path="url(#clip-path)">
      <g transform="matrix(1, 0, 0, 1, 173, 551)" filter="url(#Ellipse_36)">
        <circle id="Ellipse_36-2" data-name="Ellipse 36" cx="20" cy="20" r="20" fill="#43435e"/>
      </g>
    </g>
    <g id="dropdown" transform="translate(201 572.889) rotate(180)">
      <path id="Path_44" data-name="Path 44" d="M8,8.889a1.132,1.132,0,0,1-.792-.32L.328,1.864A1.072,1.072,0,0,1,.328.32a1.141,1.141,0,0,1,1.585,0L8,6.253,14.087.32a1.141,1.141,0,0,1,1.584,0,1.072,1.072,0,0,1,0,1.544L8.792,8.569A1.132,1.132,0,0,1,8,8.889Z" transform="translate(0 0)" fill="#fff"/>
    </g>
  </g>
</svg>
