<svg xmlns="http://www.w3.org/2000/svg" width="19" height="19" viewBox="0 0 19 19">
  <path id="notification" d="M73.381,13.412a1.282,1.282,0,0,1-1.4-1.1V8.438c0-2.523-2.064-4.674-4.936-5.469V1.924a2.524,2.524,0,0,0-4.9,0V2.969c-2.872.8-4.936,2.946-4.936,5.469v3.873a1.282,1.282,0,0,1-1.4,1.1.647.647,0,0,0-.709.557V16.12a.647.647,0,0,0,.709.557h6.1v.21a2.772,2.772,0,0,0,5.386,0v-.21h6.1a.647.647,0,0,0,.709-.557V13.969A.647.647,0,0,0,73.381,13.412ZM63.557,1.924a1.064,1.064,0,0,1,2.066,0V2.7a9.4,9.4,0,0,0-2.066,0Zm2.308,14.962a1.312,1.312,0,0,1-2.549,0v-.21h2.549Zm6.807-1.323H56.509V14.455a2.393,2.393,0,0,0,2.113-2.144V8.438c0-2.583,2.678-4.684,5.969-4.684s5.969,2.1,5.969,4.684v3.873a2.393,2.393,0,0,0,2.113,2.144Z" transform="translate(-55.09)" fill="#ffa246"/>
</svg>
